<svg xmlns="http://www.w3.org/2000/svg" width="20" height="33" viewBox="0 0 20 33">
    <path fill="#EF5777" fill-rule="nonzero" d="M5.516 5.22l1.611 1.612L10.35 3.61l3.222 3.223 1.612-1.611L10.35.387 5.516 5.22zm8.056 1.612l-1.61 1.611 1.61 1.612 1.612-1.612-1.612-1.61zm0 3.223l-1.61 1.611 1.61 1.611 1.612-1.611-1.612-1.611zm0 3.222l-1.61 1.612 1.61 1.611 1.612-1.611-1.612-1.612zm0 3.223l-1.61 1.611 1.61 1.612 1.612-1.612-1.612-1.611zm0 3.223l-3.222 3.222 1.611 1.612 3.223-3.223-1.612-1.611zm1.612 1.611l1.611 1.611-1.611 1.612 1.611 1.61 3.223-3.222-3.223-3.222-1.611 1.611zm-3.223 3.223l-1.611 1.61 1.611 1.612 1.611-1.611-1.61-1.611zm0 3.222l-1.611 1.612-1.612-1.612-1.61 1.612 3.222 3.222 3.222-3.222-1.61-1.612zm-3.223 0l1.612-1.611-1.612-1.611-1.61 1.61 1.61 1.612zm0-3.222l1.612-1.612-3.223-3.222-1.611 1.611 3.222 3.223zm-3.222-3.223l-1.612-1.611-3.222 3.222 3.222 3.223 1.612-1.611-1.612-1.612 1.612-1.611zm1.611-1.611l1.611-1.612-1.61-1.611-1.612 1.611 1.611 1.612zm0-3.223l1.611-1.611-1.61-1.612-1.612 1.612L7.127 16.5zm0-3.223l1.611-1.611-1.61-1.611-1.612 1.611 1.611 1.611zm0-3.222l1.611-1.612-1.61-1.61-1.612 1.61 1.611 1.612z"/>
</svg>
